<?xml version="1.0" encoding="utf-8"?>
<!-- Generator: Adobe Illustrator 17.0.0, SVG Export Plug-In . SVG Version: 6.00 Build 0)  -->
<!DOCTYPE svg PUBLIC "-//W3C//DTD SVG 1.1 Tiny//EN" "http://www.w3.org/Graphics/SVG/1.1/DTD/svg11-tiny.dtd">
<svg version="1.1" baseProfile="tiny" id="Layer_1" xmlns="http://www.w3.org/2000/svg" xmlns:xlink="http://www.w3.org/1999/xlink"
	 x="0px" y="0px" width="100px" height="100px" viewBox="0 0 100 100" xml:space="preserve">
<g>
	<path fill="#FFFFFF" d="M72.789,20H28.952c-0.123,0.132-0.243,0.263-0.364,0.395c-0.222,0.243-0.446,0.485-0.66,0.727
		c-0.051,0.058-0.1,0.115-0.151,0.173c-5.102,5.812-7.948,11.52-8.888,17.797l21.733,35.583c6.254,2.097,12.784,2.209,18.724,0.602
		l23.2-38.049c-1.312-6.221-4.501-11.05-9.172-16.54C73.179,20.459,72.992,20.234,72.789,20z M51.151,54.181
		c-4.52,0-8.184-3.664-8.184-8.184c0-4.52,3.664-8.184,8.184-8.184c0.698,0,1.371,0.097,2.017,0.261
		c0.466,5.001-2.218,7.887-2.192,7.867c5.435-4.058,8.358-2.228,8.358,0.056C59.334,50.517,55.67,54.181,51.151,54.181z"/>
	<path fill="#FFFFFF" d="M0,0v100h100V0H0z M50.883,8.023C58.854,8.023,66.119,10,71.598,16H30.167
		C35.647,10,42.912,8.023,50.883,8.023z M15.838,49.76c0-1.994,0.199-3.941,0.571-5.826l21.216,34.659
		C25.051,75.029,15.838,63.474,15.838,49.76z M62.689,78.593l21.216-34.659c0.371,1.885,0.571,3.832,0.571,5.826
		C84.475,63.474,75.261,75.029,62.689,78.593z M84.662,37.602l-0.203,0.332L62.162,74.502l0.021-0.006L50.151,94.154L37.647,73.728
		l0.067,0.023L16.809,39.523l0.018-0.132L3.733,18h24.351h2.753h40.218h2.651h22.862L84.64,37.487L84.662,37.602z"/>
</g>
</svg>
