<?xml version="1.0" encoding="utf-8"?>
<!-- Generator: Adobe Illustrator 17.0.0, SVG Export Plug-In . SVG Version: 6.00 Build 0)  -->
<!DOCTYPE svg PUBLIC "-//W3C//DTD SVG 1.1 Tiny//EN" "http://www.w3.org/Graphics/SVG/1.1/DTD/svg11-tiny.dtd">
<svg version="1.1" baseProfile="tiny" id="Layer_1" xmlns="http://www.w3.org/2000/svg" xmlns:xlink="http://www.w3.org/1999/xlink"
	 x="0px" y="0px" width="100px" height="100px" viewBox="0 0 100 100" xml:space="preserve">
<g>
	<path fill="#292929" stroke="#292929" stroke-width="2" stroke-miterlimit="10" d="M83.606,37.261L94.784,19H73.251
		C78.474,25,82.191,30.079,83.606,37.261z"/>
	<path fill="#292929" stroke="#292929" stroke-width="2" stroke-miterlimit="10" d="M28.514,19H5.518l12.331,20.144
		C18.946,31.192,22.84,25,28.514,19z"/>
	<path fill="#292929" stroke="#292929" stroke-width="2" stroke-miterlimit="10" d="M39.957,75.587l10.193,16.652l9.845-16.083
		c-2.898,0.821-5.952,1.271-9.113,1.271C47.055,77.427,43.381,76.774,39.957,75.587z"/>
	<path fill="#292929" d="M50.883,8.023C42.912,8.023,35.647,10,30.167,16h41.431C66.119,10,58.854,8.023,50.883,8.023z"/>
	<path fill="#292929" d="M62.689,78.593c12.573-3.564,21.787-15.119,21.787-28.833c0-1.994-0.199-3.941-0.571-5.826L62.689,78.593z"
		/>
	<path fill="#292929" d="M37.624,78.593C25.051,75.029,15.838,63.474,15.838,49.76c0-1.994,0.199-3.941,0.571-5.826L37.624,78.593z"
		/>
	<path fill="#FFFFFF" stroke="#292929" stroke-width="2" stroke-miterlimit="10" d="M73.251,19H28.514
		c-5.674,6-9.568,12.354-10.666,20.306l22.109,36.199c3.424,1.187,7.097,1.881,10.925,1.881c3.161,0,6.215-0.429,9.113-1.25
		l23.61-38.723C82.191,30.231,78.474,25,73.251,19z"/>
	<path fill="#292929" d="M49.976,46.942c-0.026,0.02,2.658-2.866,2.192-7.867c-0.646-0.164-1.32-0.261-2.017-0.261
		c-4.52,0-8.184,3.664-8.184,8.184s3.664,8.184,8.184,8.184s8.184-3.664,8.184-8.184C58.334,44.714,55.411,42.883,49.976,46.942z"/>
</g>
<g>
	<path fill="#CCCCCC" d="M50.75,83.547c0.06,0,0.06-0.094,0-0.094S50.69,83.547,50.75,83.547L50.75,83.547z"/>
</g>
</svg>
